# 3ds Max Wavefront OBJ Exporter v0.97b - (c)2007 guruware
# File Created: 25.06.2016 11:52:38

mtllib Bone_03.mtl

#
# object Bone_03
#

v  -8.7524 8.6475 44.4484
v  -2.6482 -1.9656 44.9825
v  9.5602 -1.9656 46.0505
v  15.6643 8.6475 46.5846
v  16.9371 8.6475 42.4414
v  10.3813 20.0460 41.8678
v  9.5602 19.2606 46.0505
v  -2.7305 20.0460 40.7207
v  -2.6482 19.2606 44.9825
v  -9.2864 8.6475 40.1471
v  -2.7305 -2.7510 40.7207
v  10.3813 -2.7510 41.8678
v  -6.0900 8.6475 14.0177
v  0.0142 19.2606 14.5517
v  12.2225 19.2606 15.6198
v  18.3267 8.6475 16.1538
v  12.2225 -1.9656 15.6198
v  0.0142 -1.9656 14.5517
v  -10.0910 4.9802 34.1069
v  -32.4106 3.1219 33.0229
v  -31.4531 3.1219 22.0780
v  -9.2843 4.9802 24.8862
v  -10.0910 10.4219 34.1069
v  -9.2843 10.4219 24.8862
v  -30.0398 10.9838 22.2016
v  -30.9974 10.9838 33.1466
v  -56.2494 20.8830 30.9373
v  -55.2919 20.8830 19.9923
v  -49.9475 24.9419 20.4599
v  -50.9050 24.9419 31.4049
v  -62.4888 47.8482 30.3914
v  -61.5312 47.8482 19.4465
v  -58.0355 47.8605 19.7523
v  -58.9931 47.8605 30.6973
v  -57.4158 64.8467 25.3209
v  -3.7332 7.7010 30.0175
v  2.3092 34.9928 33.6760
v  6.6415 34.9928 34.0550
v  7.2652 34.9928 26.9263
v  2.9328 34.9928 26.5473
v  6.4765 18.6395 35.9412
v  6.6415 26.8162 34.0550
v  2.3092 26.8162 33.6760
v  2.1441 18.6395 35.5621
v  7.4302 18.6395 25.0401
v  7.2652 26.8162 26.9263
v  3.0979 18.6395 24.6611
v  2.9328 26.8162 26.5473
v  1.8108 8.0025 3.3325
v  7.1173 -2.6107 0.2687
v  17.7305 -2.6107 -5.8588
v  23.0370 8.0025 -8.9225
v  21.7032 8.0025 -13.0465
v  16.0039 19.4010 -9.7560
v  17.7305 18.6156 -5.8588
v  4.6054 19.4010 -3.1751
v  7.1173 18.6156 0.2687
v  -1.0938 8.0025 0.1154
v  4.6054 -3.3960 -3.1751
v  16.0039 -3.3960 -9.7560
v  -13.4627 8.0025 -23.1220
v  -8.1562 18.6156 -26.1857
v  2.4570 18.6156 -32.3132
v  7.7635 8.0025 -35.3770
v  2.4570 -2.6107 -32.3132
v  -8.1562 -2.6107 -26.1857
v  -5.2174 4.3351 -4.3710
v  -26.2466 2.4769 3.8638
v  -31.7400 2.4769 -5.6510
v  -9.8454 4.3351 -12.3868
v  -5.2174 9.7769 -4.3710
v  -9.8454 9.7769 -12.3868
v  -30.5114 10.3388 -6.3604
v  -25.0180 10.3388 3.1545
v  -35.8551 6.9237 6.3811
v  -32.9359 13.6961 4.6957
v  -43.7230 17.0535 1.2674
v  -42.8395 11.3704 13.4437
v  -50.0272 29.1054 20.0745
v  -55.5206 29.1054 10.5597
v  -48.3328 11.3704 3.9289
v  -50.8383 31.5403 7.8564
v  -45.3449 31.5402 17.3712
v  -38.2296 17.0535 10.7822
v  -52.8036 47.2031 18.2518
v  -56.2583 44.3360 12.2681
v  -53.2193 44.3484 10.5136
v  -49.7646 47.2155 16.4973
v  -2.3550 7.0560 -11.3675
v  19.8797 4.3351 -18.8608
v  15.2518 4.3351 -26.8767
v  30.8907 2.4769 -44.4475
v  36.3841 2.4769 -34.9327
v  19.8797 9.7769 -18.8608
v  35.1555 10.3388 -34.2234
v  29.6621 10.3388 -43.7382
v  15.2518 9.7769 -26.8767
v  47.4836 11.3704 -54.0274
v  52.9770 11.3704 -44.5126
v  48.3671 17.0535 -41.8511
v  42.8737 17.0535 -51.3659
v  58.7088 34.3134 -61.1526
v  60.6776 28.5410 -48.8937
v  55.9952 30.9758 -46.1904
v  54.0265 36.7482 -58.4493
v  12.3893 7.0560 -19.8801
v  4.6930 31.0316 -11.8364
v  8.4592 31.0316 -14.0108
v  4.8813 27.5481 -20.2080
v  1.1151 27.5481 -18.0336
v  9.4059 17.9945 -12.3711
v  8.4592 26.1711 -14.0108
v  4.6930 26.1711 -11.8364
v  5.6397 17.9945 -10.1967
v  3.9346 17.9945 -21.8478
v  4.8813 23.2893 -20.2080
v  0.1684 17.9945 -19.6733
v  1.1151 23.2893 -18.0336
v  26.8295 17.4624 -0.6560
v  35.5683 15.7065 -3.1505
v  39.2644 -4.8956 21.0886
v  28.8914 -2.8113 24.0495
v  28.5889 21.2275 2.8570
v  30.8652 4.2227 26.0129
v  41.2382 2.1385 23.0520
v  37.3276 19.4716 0.3625
v  47.6594 -2.8678 49.0711
v  37.2865 -0.7835 52.0320
v  37.7276 4.6675 49.7404
v  48.1006 2.5833 46.7795
v  53.6059 8.6137 61.8213
v  43.2330 10.6980 64.7823
v  43.0124 13.1511 62.2827
v  53.3853 11.0668 59.3218
v  53.6200 24.6297 70.9801
v  31.6960 22.6309 -4.4179
# 136 vertices

vn -0.0872 -0.9962 -0.0000
vn 0.8324 -0.2557 0.4916
vn -0.0159 -0.1815 0.9833
vn -0.8642 -0.1073 0.4916
vn -0.8642 -0.1073 -0.4916
vn -0.0159 -0.1815 -0.9833
vn 0.8324 -0.2557 -0.4916
vn 0.0872 0.9962 -0.0000
vn 0.0872 0.9962 0.0000
vn 0.0826 -0.0072 -0.9966
vn 0.0268 -0.0023 0.9996
vn -0.0463 -0.9989 -0.0016
vn -0.0459 -0.9989 -0.0000
vn -0.0476 -0.9988 -0.0061
vn -0.0479 -0.9988 -0.0071
vn 0.1276 0.9918 -0.0061
vn 0.1281 0.9917 -0.0074
vn 0.1262 0.9920 -0.0016
vn 0.1257 0.9921 0.0000
vn -0.5937 0.0519 -0.8030
vn 0.5704 -0.0499 0.8198
vn -0.9704 0.0849 -0.2262
vn 0.9390 -0.0822 0.3339
vn -0.9614 0.0841 0.2618
vn 0.9941 -0.0870 -0.0648
vn -0.0840 -0.9477 0.3078
vn 0.0818 0.9479 0.3078
vn 0.4127 -0.0361 -0.9101
vn 0.4127 -0.0361 0.9101
vn 0.5410 -0.8410 -0.0000
vn 0.6788 0.7343 0.0000
vn 0.0000 -0.0000 1.0000
vn -0.0849 -0.9705 0.2256
vn -0.0866 -0.9898 0.1135
vn 0.9962 -0.0872 -0.0000
vn 0.9962 -0.0872 0.0000
vn 0.0849 0.9705 0.2256
vn 0.0866 0.9898 0.1135
vn -0.9962 0.0872 0.0000
vn -0.9962 0.0872 -0.0000
vn 0.8649 -0.0457 0.4998
vn 0.0026 0.0297 0.9996
vn -0.8597 0.1052 0.4998
vn -0.8597 0.1052 -0.4998
vn 0.0026 0.0297 -0.9996
vn 0.8649 -0.0457 -0.4998
vn 0.5000 -0.8660 -0.0000
vn 0.8285 0.2680 0.4916
vn 0.0911 -0.1578 0.9833
vn -0.6463 -0.5836 0.4916
vn -0.6463 -0.5836 -0.4916
vn 0.0911 -0.1578 -0.9833
vn 0.8285 0.2680 -0.4916
vn -0.5000 0.8660 -0.0000
vn 0.5000 -0.8660 0.0000
vn -0.5000 0.8660 0.0000
vn 0.0718 0.0415 -0.9966
vn 0.0233 0.0134 0.9996
vn 0.3568 -0.9341 0.0059
vn 0.3553 -0.9348 -0.0000
vn 0.3614 -0.9321 0.0234
vn 0.3624 -0.9316 0.0274
vn -0.2831 0.9584 -0.0353
vn -0.2808 0.9588 -0.0426
vn -0.2913 0.9566 -0.0089
vn -0.2940 0.9558 0.0000
vn -0.3646 -0.2105 -0.9070
vn 0.3489 0.2014 0.9153
vn 0.2600 -0.9620 0.0837
vn -0.7627 -0.4403 -0.4737
vn 0.7252 0.4187 0.5466
vn 0.5567 -0.8256 -0.0916
vn -0.5567 0.8256 0.0916
vn -0.8555 -0.5103 -0.0885
vn 0.8240 0.5181 0.2292
vn 0.4529 -0.8759 0.1664
vn -0.5164 0.8530 0.0754
vn 0.3588 0.2072 -0.9101
vn 0.3588 0.2071 0.9101
vn 0.9255 -0.3787 -0.0000
vn 0.1348 0.9909 0.0000
vn -0.0718 -0.0415 -0.9966
vn -0.0233 -0.0134 0.9996
vn 0.7072 -0.7069 0.0096
vn 0.6995 -0.7132 0.0450
vn 0.7010 -0.7121 0.0386
vn 0.7091 -0.7051 -0.0000
vn -0.7562 0.6524 -0.0498
vn -0.7470 0.6648 0.0000
vn -0.7494 0.6620 -0.0122
vn -0.7579 0.6497 -0.0598
vn 0.3646 0.2105 -0.9070
vn -0.3489 -0.2014 0.9153
vn 0.7816 0.3957 -0.4823
vn -0.7369 -0.3975 0.5468
vn 0.4983 -0.8670 -0.0025
vn -0.5115 0.8591 -0.0178
vn -0.3588 -0.2072 -0.9101
vn -0.3588 -0.2072 0.9101
vn -0.1348 -0.9909 -0.0000
vn -0.9255 0.3787 0.0000
vn -0.2189 0.3791 0.8991
vn 0.4871 -0.8437 0.2256
vn 0.4968 -0.8604 0.1135
vn 0.8660 0.5000 0.0000
vn -0.4708 0.8155 0.3367
vn -0.4926 0.8533 0.1709
vn -0.8660 -0.5000 0.0000
vn -0.8660 -0.5000 -0.0000
vn 0.7347 0.4587 0.4998
vn -0.0149 0.0258 0.9996
vn -0.7646 -0.4070 0.4998
vn -0.7646 -0.4070 -0.4998
vn -0.0149 0.0258 -0.9996
vn 0.7347 0.4587 -0.4998
vn 0.5640 -0.2759 0.7783
vn 0.6742 -0.7219 -0.1556
vn -0.1944 0.3303 0.9236
vn -0.3171 0.5857 -0.7460
vn 0.3116 -0.5423 0.7802
vn -0.9463 -0.2469 0.2089
vn -0.9496 -0.2424 0.1988
vn -0.9492 -0.2429 0.1999
vn -0.9456 -0.2477 0.2107
vn 0.9380 0.2973 -0.1784
vn 0.9420 0.2888 -0.1707
vn 0.9414 0.2901 -0.1719
vn 0.9373 0.2988 -0.1796
vn -0.1626 -0.1198 -0.9794
vn 0.1774 0.0697 0.9817
vn -0.9441 -0.2695 0.1897
vn 0.9441 0.2695 -0.1897
vn 0.0372 -0.6591 -0.7512
vn 0.0058 0.5619 0.8272
vn 0.1464 -0.8587 -0.4912
vn -0.0848 0.7549 0.6503
vn -0.7987 -0.4559 0.3927
vn 0.9979 0.0570 0.0317
vn -0.3208 0.8836 -0.3411
vn 0.2677 -0.2915 0.9183
vn -0.7857 0.2244 0.5765
vn 0.7073 0.6506 0.2765
# 142 vertex normals

vt 0.1957 0.8092 -0.8056
vt 0.2001 0.8117 -0.8056
vt 0.2001 0.8168 -0.8056
vt 0.1957 0.8194 -0.8056
vt 0.1913 0.8219 -0.8056
vt 0.1896 0.8219 -0.8056
vt 0.1896 0.8168 0.8056
vt 0.1913 0.8168 0.8056
vt 0.1896 0.8117 -0.8056
vt 0.1913 0.8117 -0.8056
vt 0.1896 0.8067 -0.8056
vt 0.1913 0.8067 -0.8056
vt 0.1896 0.8016 -0.8056
vt 0.1913 0.8016 -0.8056
vt 0.1913 0.8321 -0.8056
vt 0.1896 0.8321 -0.8056
vt 0.1896 0.8270 -0.8056
vt 0.1913 0.8270 -0.8056
vt 0.1743 0.8092 -0.8056
vt 0.1787 0.8117 -0.8056
vt 0.1787 0.8168 0.8056
vt 0.1743 0.8194 -0.8056
vt 0.1699 0.8168 -0.8056
vt 0.1699 0.8117 -0.8056
vt 0.1303 0.8318 -12.6045
vt 0.1386 0.8344 -12.6045
vt 0.1374 0.8387 -12.6045
vt 0.1282 0.8343 -12.6045
vt 0.1308 0.8304 -12.6045
vt 0.1304 0.8274 -12.6045
vt 0.1392 0.8267 -12.6045
vt 0.1393 0.8312 -12.6045
vt 0.1386 0.8234 -12.6045
vt 0.1294 0.8259 -12.6045
vt 0.1504 0.8344 -12.6045
vt 0.1509 0.8389 -12.6045
vt 0.1504 0.8267 -12.6045
vt 0.1503 0.8314 -12.6045
vt 0.1505 0.8239 -12.6045
vt 0.1611 0.8322 -12.6045
vt 0.1629 0.8362 -12.6045
vt 0.1611 0.8269 -12.6045
vt 0.1608 0.8312 -12.6045
vt 0.1616 0.8256 -12.6045
vt 0.1681 0.8300 12.6045
vt 0.1278 0.8298 12.6045
vt 0.1780 0.8259 -2.7925
vt 0.1762 0.8258 -2.7925
vt 0.1763 0.8229 -2.7925
vt 0.1781 0.8229 -2.7925
vt 0.1694 0.8265 -2.7925
vt 0.1728 0.8259 -2.7925
vt 0.1730 0.8279 -2.7925
vt 0.1695 0.8281 2.7925
vt 0.1694 0.8221 2.7925
vt 0.1729 0.8228 -2.7925
vt 0.1697 0.8203 -2.7925
vt 0.1731 0.8210 -2.7925
vt 0.1736 0.8309 -2.7925
vt 0.1706 0.8324 -2.7925
vt 0.1764 0.8275 -2.7925
vt 0.1764 0.8212 -2.7925
vt 0.1769 0.8303 -2.7925
vt 0.1787 0.8219 -0.8056
vt 0.1787 0.8067 -0.8056
vt 0.1787 0.8016 -0.8056
vt 0.1787 0.8321 -0.8056
vt 0.1787 0.8270 -0.8056
vt 0.1957 0.8438 -0.8056
vt 0.2001 0.8464 -0.8056
vt 0.2001 0.8515 -0.8056
vt 0.1957 0.8540 -0.8056
vt 0.1913 0.8565 -0.8056
vt 0.1896 0.8565 -0.8056
vt 0.1896 0.8515 0.8056
vt 0.1913 0.8515 0.8056
vt 0.1896 0.8464 -0.8056
vt 0.1913 0.8464 -0.8056
vt 0.1896 0.8413 -0.8056
vt 0.1913 0.8413 -0.8056
vt 0.1896 0.8362 -0.8056
vt 0.1913 0.8362 -0.8056
vt 0.1913 0.8667 -0.8056
vt 0.1896 0.8667 -0.8056
vt 0.1896 0.8616 -0.8056
vt 0.1913 0.8616 -0.8056
vt 0.1743 0.8438 -0.8056
vt 0.1787 0.8464 -0.8056
vt 0.1787 0.8515 0.8056
vt 0.1743 0.8540 -0.8056
vt 0.1699 0.8515 -0.8056
vt 0.1699 0.8464 -0.8056
vt 0.1303 0.8664 -12.6045
vt 0.1386 0.8690 -12.6045
vt 0.1374 0.8733 -12.6045
vt 0.1282 0.8689 -12.6045
vt 0.1308 0.8650 -12.6045
vt 0.1304 0.8620 -12.6045
vt 0.1392 0.8613 -12.6045
vt 0.1393 0.8659 -12.6045
vt 0.1386 0.8580 -12.6045
vt 0.1294 0.8605 -12.6045
vt 0.1426 0.8693 -12.6045
vt 0.1429 0.8660 -12.6045
vt 0.1466 0.8613 -12.6045
vt 0.1466 0.8695 -12.6045
vt 0.1543 0.8686 -12.6045
vt 0.1552 0.8731 -12.6045
vt 0.1467 0.8741 -12.6045
vt 0.1542 0.8615 -12.6045
vt 0.1541 0.8660 -12.6045
vt 0.1466 0.8661 -12.6045
vt 0.1467 0.8581 -12.6045
vt 0.1543 0.8590 -12.6045
vt 0.1611 0.8669 -12.6045
vt 0.1629 0.8708 -12.6045
vt 0.1611 0.8615 -12.6045
vt 0.1608 0.8658 -12.6045
vt 0.1616 0.8602 -12.6045
vt 0.1278 0.8644 12.6045
vt 0.1303 0.8491 -12.6045
vt 0.1282 0.8517 -12.6045
vt 0.1374 0.8561 -12.6045
vt 0.1386 0.8517 -12.6045
vt 0.1308 0.8477 -12.6045
vt 0.1393 0.8486 -12.6045
vt 0.1392 0.8440 -12.6045
vt 0.1304 0.8447 -12.6045
vt 0.1386 0.8407 -12.6045
vt 0.1294 0.8432 -12.6045
vt 0.1467 0.8568 -12.6045
vt 0.1466 0.8522 -12.6045
vt 0.1466 0.8488 -12.6045
vt 0.1466 0.8440 -12.6045
vt 0.1467 0.8408 -12.6045
vt 0.1552 0.8558 -12.6045
vt 0.1543 0.8513 -12.6045
vt 0.1541 0.8488 -12.6045
vt 0.1542 0.8442 -12.6045
vt 0.1543 0.8418 -12.6045
vt 0.1278 0.8471 12.6045
vt 0.1780 0.8605 -2.7925
vt 0.1762 0.8604 -2.7925
vt 0.1763 0.8575 -2.7925
vt 0.1781 0.8575 -2.7925
vt 0.1694 0.8611 -2.7925
vt 0.1728 0.8606 -2.7925
vt 0.1730 0.8625 -2.7925
vt 0.1695 0.8627 2.7925
vt 0.1694 0.8567 2.7925
vt 0.1729 0.8575 -2.7925
vt 0.1697 0.8550 -2.7925
vt 0.1731 0.8556 -2.7925
vt 0.1736 0.8655 -2.7925
vt 0.1706 0.8671 -2.7925
vt 0.1764 0.8621 -2.7925
vt 0.1764 0.8558 -2.7925
vt 0.1769 0.8650 -2.7925
vt 0.1787 0.8565 -0.8056
vt 0.1787 0.8413 -0.8056
vt 0.1787 0.8362 -0.8056
vt 0.1787 0.8667 -0.8056
vt 0.1787 0.8616 -0.8056
vt 0.1966 0.8239 12.2196
vt 0.2052 0.8240 -12.2196
vt 0.2047 0.8277 12.2196
vt 0.1962 0.8276 -12.2196
vt 0.2046 0.8341 -25.1465
vt 0.1968 0.8341 -25.1465
vt 0.1968 0.8304 25.1465
vt 0.2046 0.8304 25.1465
vt 0.1303 0.8145 -12.6045
vt 0.1282 0.8170 -12.6045
vt 0.1420 0.8218 -12.6045
vt 0.1426 0.8173 -12.6045
vt 0.1308 0.8131 -12.6045
vt 0.1429 0.8141 -12.6045
vt 0.1429 0.8094 -12.6045
vt 0.1304 0.8101 -12.6045
vt 0.1427 0.8061 -12.6045
vt 0.1294 0.8086 -12.6045
vt 0.1552 0.8211 -12.6045
vt 0.1543 0.8166 -12.6045
vt 0.1541 0.8141 -12.6045
vt 0.1542 0.8095 -12.6045
vt 0.1543 0.8071 -12.6045
vt 0.1629 0.8189 -12.6045
vt 0.1611 0.8150 -12.6045
vt 0.1608 0.8139 -12.6045
vt 0.1611 0.8096 -12.6045
vt 0.1616 0.8083 -12.6045
vt 0.1681 0.8128 12.6045
vt 0.1278 0.8125 12.6045
# 193 texture coords

g Bone_03
usemtl Fantasy_Demon__Caves
s off
f 1/1/1 2/2/1 3/3/1 4/4/1 
f 4/5/2 5/6/2 6/7/2 7/8/2 
f 7/8/3 6/7/3 8/9/3 9/10/3 
f 9/10/4 8/9/4 10/11/4 1/12/4 
f 1/12/5 10/11/5 11/13/5 2/14/5 
f 2/15/6 11/16/6 12/17/6 3/18/6 
f 3/18/7 12/17/7 5/6/7 4/5/7 
f 13/19/8 14/20/8 15/21/8 16/22/8 
f 7/8/1 9/10/1 1/1/1 4/4/1 
f 17/23/9 18/24/9 13/19/9 16/22/9 
s 2
f 19/25/10 20/26/10 21/27/10 22/28/10 
s 4
f 23/29/11 24/30/11 25/31/11 26/32/11 
s 8
f 19/25/12 23/29/13 26/32/14 20/26/15 
s 32
f 21/33/16 25/31/17 24/30/18 22/34/19 
s off
f 20/26/20 27/35/20 28/36/20 21/27/20 
f 25/31/21 29/37/21 30/38/21 26/32/21 
f 26/32/1 30/38/1 27/35/1 20/26/1 
f 21/33/9 28/39/9 29/37/9 25/31/9 
f 27/35/22 31/40/22 32/41/22 28/36/22 
f 29/37/23 33/42/23 34/43/23 30/38/23 
f 30/38/1 34/43/1 31/40/1 27/35/1 
f 28/39/9 32/44/9 33/42/9 29/37/9 
f 31/40/24 35/45/24 32/41/24 
f 33/42/25 35/45/25 34/43/25 
f 34/43/26 35/45/26 31/40/26 
f 32/44/27 35/45/27 33/42/27 
f 22/28/28 36/46/28 19/25/28 
f 23/29/29 36/46/29 24/30/29 
f 19/25/30 36/46/30 23/29/30 
f 24/30/31 36/46/31 22/34/31 
s 4
f 37/47/32 38/48/32 39/49/32 40/50/32 
s 8
f 41/51/33 42/52/34 43/53/34 44/54/33 
s 16
f 45/55/35 46/56/35 42/52/35 41/51/36 
s 32
f 47/57/37 48/58/38 46/56/38 45/55/37 
s 64
f 44/54/39 43/53/39 48/59/39 47/60/40 
s 8
f 38/48/1 37/61/1 43/53/34 42/52/34 
s 16
f 39/49/35 38/48/35 42/52/35 46/56/35 
s 32
f 40/62/9 39/49/9 46/56/38 48/58/38 
s 64
f 37/61/39 40/63/39 48/59/39 43/53/39 
s off
f 16/64/41 15/21/41 6/7/41 5/6/41 
f 15/21/42 14/20/42 8/9/42 6/7/42 
f 14/20/43 13/65/43 10/11/43 8/9/43 
f 13/65/44 18/66/44 11/13/44 10/11/44 
f 18/67/45 17/68/45 12/17/45 11/16/45 
f 17/68/46 16/64/46 5/6/46 12/17/46 
f 49/69/47 50/70/47 51/71/47 52/72/47 
f 52/73/48 53/74/48 54/75/48 55/76/48 
f 55/76/49 54/75/49 56/77/49 57/78/49 
f 57/78/50 56/77/50 58/79/50 49/80/50 
f 49/80/51 58/79/51 59/81/51 50/82/51 
f 50/83/52 59/84/52 60/85/52 51/86/52 
f 51/86/53 60/85/53 53/74/53 52/73/53 
f 61/87/54 62/88/54 63/89/54 64/90/54 
f 55/76/55 57/78/55 49/69/55 52/72/55 
f 65/91/56 66/92/56 61/87/56 64/90/56 
s 2
f 67/93/57 68/94/57 69/95/57 70/96/57 
s 4
f 71/97/58 72/98/58 73/99/58 74/100/58 
s 8
f 67/93/59 71/97/60 74/100/61 68/94/62 
s 32
f 69/101/63 73/99/64 72/98/65 70/102/66 
s off
f 68/94/67 75/103/67 69/95/67 
f 73/99/68 76/104/68 74/100/68 
f 74/100/69 76/104/69 75/103/69 68/94/69 
f 69/101/56 77/105/56 73/99/56 
f 78/106/70 79/107/70 80/108/70 81/109/70 
f 77/105/71 82/110/71 83/111/71 84/112/71 
f 84/112/72 83/111/72 79/107/72 78/106/72 
f 81/113/73 80/114/73 82/110/73 77/105/73 
f 79/107/74 85/115/74 86/116/74 80/108/74 
f 82/110/75 87/117/75 88/118/75 83/111/75 
f 83/111/76 88/118/76 85/115/76 79/107/76 
f 80/114/77 86/119/77 87/117/77 82/110/77 
f 70/96/78 89/120/78 67/93/78 
f 71/97/79 89/120/79 72/98/79 
f 67/93/80 89/120/80 71/97/80 
f 72/98/81 89/120/81 70/102/81 
s 2
f 90/121/82 91/122/82 92/123/82 93/124/82 
s 4
f 94/125/83 95/126/83 96/127/83 97/128/83 
s 8
f 90/121/84 93/124/85 95/126/86 94/125/87 
s 32
f 92/129/88 91/130/89 97/128/90 96/127/91 
s off
f 93/124/92 92/123/92 98/131/92 99/132/92 
f 96/127/93 95/126/93 100/133/93 101/134/93 
f 95/126/55 93/124/55 99/132/55 100/133/55 
f 92/129/54 96/127/54 101/134/54 98/135/54 
f 99/132/94 98/131/94 102/136/94 103/137/94 
f 101/134/95 100/133/95 104/138/95 105/139/95 
f 100/133/96 99/132/96 103/137/96 104/138/96 
f 98/135/97 101/134/97 105/139/97 102/140/97 
f 91/122/98 90/121/98 106/141/98 
f 94/125/99 97/128/99 106/141/99 
f 90/121/100 94/125/100 106/141/100 
f 97/128/101 91/130/101 106/141/101 
s 4
f 107/142/102 108/143/102 109/144/102 110/145/102 
s 8
f 111/146/103 112/147/104 113/148/104 114/149/103 
s 16
f 115/150/105 116/151/105 112/147/105 111/146/105 
s 32
f 117/152/106 118/153/107 116/151/107 115/150/106 
s 64
f 114/149/108 113/148/108 118/154/108 117/155/108 
s 8
f 108/143/47 107/156/47 113/148/104 112/147/104 
s 16
f 109/144/105 108/143/105 112/147/105 116/151/105 
s 32
f 110/157/56 109/144/56 116/151/107 118/153/107 
s 64
f 107/156/109 110/158/109 118/154/108 113/148/108 
s off
f 64/159/110 63/89/110 54/75/110 53/74/110 
f 63/89/111 62/88/111 56/77/111 54/75/111 
f 62/88/112 61/160/112 58/79/112 56/77/112 
f 61/160/113 66/161/113 59/81/113 58/79/113 
f 66/162/114 65/163/114 60/85/114 59/84/114 
f 65/163/115 64/159/115 53/74/115 60/85/115 
f 105/164/116 104/165/116 103/166/116 102/167/116 
f 84/112/117 78/106/117 75/103/117 76/104/117 
f 75/103/67 78/106/67 81/109/67 
f 75/103/67 81/109/67 69/95/67 
f 73/99/68 77/105/68 76/104/68 
f 69/101/54 81/113/54 77/105/54 
f 77/105/68 84/112/68 76/104/68 
f 88/168/118 87/169/118 86/170/118 85/171/118 
s 2
f 119/172/119 120/173/119 121/174/119 122/175/119 
s 4
f 123/176/120 124/177/120 125/178/120 126/179/120 
s 8
f 119/172/121 122/175/122 124/177/123 123/176/124 
s 32
f 121/180/125 120/181/126 126/179/127 125/178/128 
s off
f 122/175/129 121/174/129 127/182/129 128/183/129 
f 125/178/130 124/177/130 129/184/130 130/185/130 
f 124/177/131 122/175/131 128/183/131 129/184/131 
f 121/180/132 125/178/132 130/185/132 127/186/132 
f 128/183/133 127/182/133 131/187/133 132/188/133 
f 130/185/134 129/184/134 133/189/134 134/190/134 
f 129/184/131 128/183/131 132/188/131 133/189/131 
f 127/186/132 130/185/132 134/190/132 131/191/132 
f 132/188/135 131/187/135 135/192/135 
f 134/190/136 133/189/136 135/192/136 
f 133/189/137 132/188/137 135/192/137 
f 131/191/138 134/190/138 135/192/138 
f 120/173/139 119/172/139 136/193/139 
f 123/176/140 126/179/140 136/193/140 
f 119/172/141 123/176/141 136/193/141 
f 126/179/142 120/181/142 136/193/142 
# 102 polygons - 32 triangles

