# 3ds Max Wavefront OBJ Exporter v0.97b - (c)2007 guruware
# File Created: 25.06.2016 11:52:21

mtllib rock_cliff_03_lava.mtl

#
# object rock_cliff_03_lava
#

v  -290.0790 929.5399 -59.8697
v  -308.6087 717.4972 -65.4762
v  -269.0000 726.1625 26.7498
v  -259.4687 929.5219 26.8947
v  -230.6117 717.4972 133.0872
v  -226.2986 929.6249 124.8514
v  -145.7363 717.4972 198.1692
v  -137.7816 929.7831 183.6039
v  -62.6836 929.8018 194.8876
v  -66.1011 717.4971 217.0478
v  14.0948 717.4972 225.5567
v  10.1501 929.6356 203.4441
v  113.3812 782.7505 161.0549
v  104.5034 929.2274 143.5287
v  166.5638 782.7505 39.5061
v  151.8683 928.8038 33.0494
v  189.0377 879.4958 -38.6437
v  203.3945 782.7504 -38.1674
v  150.3362 782.7505 -172.7505
v  139.2598 879.4960 -164.9062
v  25.2374 782.7505 -277.7210
v  21.8949 879.4958 -263.3871
v  -171.9738 782.7506 -326.8954
v  -163.1234 879.4958 -309.5209
v  -266.6349 782.7504 -272.5817
v  -251.9324 879.4957 -258.5653
v  -314.2025 717.4973 -186.4800
v  -293.0823 929.3231 -179.3718
v  -327.6346 0.0000 -329.2550
v  -369.2991 0.0000 -213.6390
v  -164.3818 928.9202 -226.5053
v  -13.6028 928.6337 -187.7032
v  101.9242 928.5978 -90.4738
v  -365.4301 0.0000 -79.3141
v  -299.0732 -0.0000 28.8126
v  -351.8109 -0.0000 91.6613
v  -328.0199 -0.0000 197.3176
v  -293.4297 694.1229 168.3998
v  -312.7938 702.7883 77.7512
v  -256.2375 -0.0000 302.6542
v  -213.5424 694.1229 257.6519
v  -123.9996 -0.0000 378.1059
v  48.1581 -0.0001 397.3426
v  34.0566 694.1229 313.0460
v  -105.5618 694.1230 297.4468
v  230.3184 -0.0000 284.7861
v  180.2160 759.3762 219.5458
v  313.4865 -0.0000 106.6695
v  247.1400 759.3762 76.2243
v  369.3000 0.0000 -31.7695
v  282.5323 0.0000 -267.0796
v  222.2326 759.3762 -224.5002
v  292.0480 759.3763 -35.1609
v  137.5902 0.0001 -393.0240
v  105.6121 759.3762 -325.8344
v  38.2581 0.0000 -335.6976
v  -208.9666 0.0001 -397.3427
# 57 vertices

vn -0.9777 -0.1970 0.0732
vn -0.9727 -0.2197 0.0752
vn -0.9262 -0.3729 0.0563
vn -0.9432 -0.3298 0.0396
vn -0.8010 -0.5971 0.0434
vn -0.7999 -0.5979 0.0520
vn -0.4197 -0.9053 0.0656
vn -0.3657 -0.9264 0.0899
vn -0.1306 -0.9860 0.1034
vn -0.1587 -0.9829 0.0935
vn 0.1405 -0.9843 0.1071
vn 0.2122 -0.9703 0.1159
vn 0.7080 -0.6973 0.1120
vn 0.7607 -0.6371 0.1244
vn 0.9124 -0.3955 0.1057
vn 0.9137 -0.3913 0.1092
vn 0.9218 0.3634 0.1350
vn 0.8037 0.5786 0.1389
vn 0.8035 0.5788 0.1389
vn 0.3771 0.9180 0.1228
vn 0.4538 0.8791 0.1459
vn -0.1390 0.9803 0.1401
vn -0.1194 0.9753 0.1861
vn -0.4922 0.8578 0.1480
vn -0.4879 0.8503 0.1973
vn -0.9957 -0.0426 0.0821
vn -0.9948 -0.0248 0.0984
vn 0.9048 -0.4087 0.1199
vn -0.9213 0.3777 0.0924
vn -0.2474 0.5519 0.7963
vn 0.1276 0.5018 0.8555
vn 0.3340 0.3973 0.8547
vn 0.5786 0.2316 0.7820
vn -0.9602 -0.2726 0.0613
vn -0.8517 -0.5227 0.0368
vn -0.9740 -0.2189 0.0577
vn -0.9111 -0.4058 0.0727
vn -0.8927 -0.4462 0.0635
vn -0.9751 -0.2139 0.0584
vn -0.6689 -0.7364 0.1014
vn -0.5649 -0.8216 0.0771
vn -0.3063 -0.9446 0.1179
vn 0.2146 -0.9694 0.1193
vn 0.2374 -0.9637 0.1219
vn -0.2400 -0.9653 0.1028
vn 0.7405 -0.6636 0.1059
vn 0.7641 -0.6360 0.1078
vn 0.9019 -0.4211 0.0957
vn 0.9019 -0.4212 0.0957
vn 0.9341 0.3445 0.0935
vn 0.8189 0.5657 0.0967
vn 0.8191 0.5654 0.0967
vn 0.9341 0.3444 0.0935
vn 0.6530 0.7515 0.0940
vn 0.2412 0.9675 0.0757
vn -0.1450 0.9848 0.0955
vn -0.4951 0.8629 0.1011
vn -0.9965 -0.0306 0.0780
vn 0.9232 -0.3722 0.0956
vn -0.8784 0.4590 0.1334
vn -0.7654 0.6429 0.0298
vn -0.4999 0.8643 0.0556
vn 0.1677 0.1965 0.9661
vn 0.2515 0.0954 0.9631
vn 0.2419 -0.1046 0.9646
vn 0.2369 -0.1074 0.9656
vn -0.2092 -0.4088 0.8883
vn -0.0291 -0.2650 0.9638
vn -0.0811 -0.2594 0.9624
vn -0.1934 -0.2065 0.9591
vn -0.2806 -0.1655 0.9455
vn 0.0014 0.0057 1.0000
vn 0.0026 0.0027 1.0000
vn 0.0014 0.0018 1.0000
vn 0.0030 0.0015 1.0000
# 75 vertex normals

vt 0.0411 0.4445 -259.7308
vt 0.0320 0.4302 -259.7308
vt 0.0270 0.4387 -259.7308
vt 0.0340 0.4489 -259.7308
vt 0.1344 0.4554 -259.7308
vt 0.1417 0.4451 -259.7308
vt 0.1356 0.4372 -259.7308
vt 0.1271 0.4510 -259.7308
vt 0.1317 0.4340 -259.7308
vt 0.1229 0.4484 -259.7308
vt 0.1171 0.4445 -259.7308
vt 0.1250 0.4296 -259.7308
vt 0.1185 0.4269 -259.7308
vt 0.1115 0.4422 -259.7308
vt 0.1074 0.4275 -259.7308
vt 0.1039 0.4363 -259.7308
vt 0.0968 0.4255 -259.7308
vt 0.0933 0.4343 -259.7308
vt 0.0889 0.4296 -259.7308
vt 0.0904 0.4228 -259.7308
vt 0.0789 0.4217 -259.7308
vt 0.0786 0.4284 -259.7308
vt 0.0660 0.4214 -259.7308
vt 0.0675 0.4284 -259.7308
vt 0.0516 0.4243 -259.7308
vt 0.0540 0.4305 -259.7308
vt 0.0449 0.4272 -259.7308
vt 0.0478 0.4331 -259.7308
vt 0.0364 0.4275 -259.7308
vt 0.0449 0.4396 -259.7308
vt 0.0258 0.3744 259.7308
vt 0.0173 0.3791 -259.7308
vt 0.0546 0.4366 -259.7308
vt 0.0684 0.4349 -259.7308
vt 0.0816 0.4343 -259.7308
vt 0.0112 0.3826 -259.7308
vt 0.0021 0.3876 -259.7308
vt 0.1728 0.3952 -259.7308
vt 0.1675 0.3908 -259.7308
vt 0.1406 0.4331 -259.7308
vt 0.1423 0.4404 -259.7308
vt 0.1623 0.3864 -259.7308
vt 0.1373 0.4293 -259.7308
vt 0.1502 0.3788 -259.7308
vt 0.1385 0.3732 -259.7308
vt 0.1203 0.4202 -259.7308
vt 0.1285 0.4237 -259.7308
vt 0.1232 0.3680 259.7308
vt 0.1083 0.4208 -259.7308
vt 0.1089 0.3644 -259.7308
vt 0.0986 0.4184 -259.7308
vt 0.0971 0.3621 -259.7308
vt 0.0781 0.3609 -259.7308
vt 0.0786 0.4155 -259.7308
vt 0.0918 0.4164 -259.7308
vt 0.0631 0.3624 -259.7308
vt 0.0690 0.4164 -259.7308
vt 0.0543 0.3653 -259.7308
vt 0.0358 0.3703 -259.7308
vt 0.1772 0.3994 -259.7308
vt 0.1406 0.4733 -208.0959
vt 0.1394 0.4633 -208.0959
vt 0.1417 0.4566 -208.0959
vt 0.1532 0.4448 -208.0959
vt 0.1441 0.4501 -208.0959
vt 0.1643 0.4457 208.0959
vt 0.1725 0.4551 -208.0959
vt 0.1725 0.4830 -208.0959
vt 0.1758 0.4686 -208.0959
vt 0.1473 0.4800 -208.0959
vt 0.1631 0.4915 -208.0959
vt 0.1535 0.4862 208.0959
# 72 texture coords

g rock_cliff_03_lava
usemtl Fantasy_Demon__Caves
s 8
f 1/1/1 2/2/2 3/3/3 4/4/4 
f 4/5/4 3/6/3 5/7/5 6/8/6 
f 6/8/6 5/7/5 7/9/7 8/10/8 
f 9/11/9 10/12/10 11/13/11 12/14/12 
f 12/14/12 11/13/11 13/15/13 14/16/14 
f 14/16/14 13/15/13 15/17/15 16/18/16 
f 17/19/17 18/20/17 19/21/18 20/22/19 
f 20/22/19 19/21/18 21/23/20 22/24/21 
f 22/24/21 21/23/20 23/25/22 24/26/23 
f 24/26/23 23/25/22 25/27/24 26/28/25 
f 27/29/26 2/2/2 1/1/1 28/30/27 
f 8/10/8 7/9/7 10/12/10 9/11/9 
s off
f 15/17/28 18/20/28 17/19/28 16/18/28 
f 27/29/29 25/27/29 29/31/29 30/32/29 
f 28/30/30 31/33/30 24/26/30 26/28/30 
f 31/33/31 32/34/31 22/24/31 24/26/31 
f 32/34/32 33/35/32 20/22/32 22/24/32 
f 33/35/33 16/18/33 17/19/33 20/22/33 
s 8
f 34/36/34 35/37/35 3/3/3 2/2/2 
f 36/38/36 37/39/37 38/40/38 39/41/39 
f 37/39/37 40/42/40 41/43/41 38/40/38 
f 42/44/42 43/45/43 44/46/44 45/47/45 
f 43/45/43 46/48/46 47/49/47 44/46/44 
f 46/48/46 48/50/48 49/51/49 47/49/47 
f 50/52/50 51/53/51 52/54/52 53/55/53 
f 51/53/51 54/56/54 55/57/54 52/54/52 
f 56/58/55 57/59/56 23/25/22 21/23/20 
f 57/59/56 29/31/57 25/27/24 23/25/22 
f 30/32/58 34/36/34 2/2/2 27/29/26 
f 40/42/40 42/44/42 45/47/45 41/43/41 
s off
f 48/50/59 50/52/59 53/55/59 49/51/59 
f 28/30/60 26/28/60 25/27/60 27/29/60 
f 3/6/61 35/60/61 36/38/61 39/41/61 
f 56/58/62 21/23/62 55/57/62 54/56/62 
f 21/23/63 19/21/63 52/54/63 55/57/63 
f 19/21/64 18/20/64 53/55/64 52/54/64 
f 18/20/65 15/17/65 49/51/65 53/55/65 
f 15/17/66 13/15/66 47/49/66 49/51/66 
f 13/15/67 11/13/67 44/46/67 47/49/67 
f 11/13/68 10/12/68 45/47/68 44/46/68 
f 10/12/69 7/9/69 41/43/69 45/47/69 
f 7/9/70 5/7/70 38/40/70 41/43/70 
f 5/7/71 3/6/71 39/41/71 38/40/71 
f 6/61/72 8/62/72 9/63/72 14/64/72 
f 9/63/73 12/65/73 14/64/73 
f 14/64/73 16/66/73 33/67/73 31/68/73 
f 33/67/73 32/69/73 31/68/73 
f 6/61/74 14/64/74 31/68/74 4/70/74 
f 4/70/75 31/68/75 28/71/75 1/72/75 
# 47 polygons - 2 triangles

